<mxfile host="app.diagrams.net" agent="Mozilla/5.0 (Windows NT 10.0; Win64; x64) AppleWebKit/537.36 (KHTML, like Gecko) Chrome/134.0.0.0 Safari/537.36 Edg/134.0.0.0" version="26.0.16">
  <diagram name="第 1 页" id="utiq6C3ApPZFi0Ste6pE">
    <mxGraphModel dx="1426" dy="755" grid="1" gridSize="10" guides="1" tooltips="1" connect="1" arrows="1" fold="1" page="1" pageScale="1" pageWidth="827" pageHeight="1169" math="0" shadow="0">
      <root>
        <mxCell id="0" />
        <mxCell id="1" parent="0" />
        <mxCell id="mzjdD9Uk-mY5WA9KTlrh-14" value="" style="rounded=1;whiteSpace=wrap;html=1;" vertex="1" parent="1">
          <mxGeometry x="80" y="20" width="670" height="680" as="geometry" />
        </mxCell>
        <mxCell id="mzjdD9Uk-mY5WA9KTlrh-9" style="edgeStyle=orthogonalEdgeStyle;rounded=0;orthogonalLoop=1;jettySize=auto;html=1;exitX=0.25;exitY=0;exitDx=0;exitDy=0;entryX=0.5;entryY=1;entryDx=0;entryDy=0;curved=1;" edge="1" parent="1" source="mzjdD9Uk-mY5WA9KTlrh-1" target="mzjdD9Uk-mY5WA9KTlrh-5">
          <mxGeometry relative="1" as="geometry" />
        </mxCell>
        <mxCell id="mzjdD9Uk-mY5WA9KTlrh-10" style="edgeStyle=orthogonalEdgeStyle;rounded=0;orthogonalLoop=1;jettySize=auto;html=1;exitX=0.75;exitY=0;exitDx=0;exitDy=0;entryX=0.5;entryY=1;entryDx=0;entryDy=0;curved=1;" edge="1" parent="1" source="mzjdD9Uk-mY5WA9KTlrh-1" target="mzjdD9Uk-mY5WA9KTlrh-6">
          <mxGeometry relative="1" as="geometry" />
        </mxCell>
        <mxCell id="mzjdD9Uk-mY5WA9KTlrh-11" style="edgeStyle=orthogonalEdgeStyle;rounded=0;orthogonalLoop=1;jettySize=auto;html=1;exitX=0.5;exitY=0;exitDx=0;exitDy=0;entryX=0.5;entryY=1;entryDx=0;entryDy=0;curved=1;" edge="1" parent="1" source="mzjdD9Uk-mY5WA9KTlrh-1" target="mzjdD9Uk-mY5WA9KTlrh-7">
          <mxGeometry relative="1" as="geometry" />
        </mxCell>
        <mxCell id="mzjdD9Uk-mY5WA9KTlrh-1" value="&lt;font style=&quot;font-size: 21px;&quot;&gt;Entity&lt;/font&gt;" style="rounded=1;whiteSpace=wrap;html=1;" vertex="1" parent="1">
          <mxGeometry x="354" y="430" width="120" height="60" as="geometry" />
        </mxCell>
        <mxCell id="mzjdD9Uk-mY5WA9KTlrh-8" style="edgeStyle=orthogonalEdgeStyle;rounded=0;orthogonalLoop=1;jettySize=auto;html=1;curved=1;" edge="1" parent="1" source="mzjdD9Uk-mY5WA9KTlrh-2" target="mzjdD9Uk-mY5WA9KTlrh-1">
          <mxGeometry relative="1" as="geometry" />
        </mxCell>
        <mxCell id="mzjdD9Uk-mY5WA9KTlrh-2" value="&lt;font style=&quot;font-size: 21px;&quot;&gt;Value Object&lt;/font&gt;" style="rounded=1;whiteSpace=wrap;html=1;" vertex="1" parent="1">
          <mxGeometry x="341" y="585" width="146" height="60" as="geometry" />
        </mxCell>
        <mxCell id="mzjdD9Uk-mY5WA9KTlrh-12" style="edgeStyle=orthogonalEdgeStyle;rounded=0;orthogonalLoop=1;jettySize=auto;html=1;exitX=0.5;exitY=0;exitDx=0;exitDy=0;entryX=0.25;entryY=1;entryDx=0;entryDy=0;curved=1;" edge="1" parent="1" source="mzjdD9Uk-mY5WA9KTlrh-5" target="mzjdD9Uk-mY5WA9KTlrh-7">
          <mxGeometry relative="1" as="geometry" />
        </mxCell>
        <mxCell id="mzjdD9Uk-mY5WA9KTlrh-5" value="&lt;font style=&quot;font-size: 21px;&quot;&gt;Repository&lt;/font&gt;" style="rounded=1;whiteSpace=wrap;html=1;" vertex="1" parent="1">
          <mxGeometry x="190" y="250" width="120" height="60" as="geometry" />
        </mxCell>
        <mxCell id="mzjdD9Uk-mY5WA9KTlrh-13" style="edgeStyle=orthogonalEdgeStyle;rounded=0;orthogonalLoop=1;jettySize=auto;html=1;exitX=0.5;exitY=0;exitDx=0;exitDy=0;entryX=0.75;entryY=1;entryDx=0;entryDy=0;curved=1;" edge="1" parent="1" source="mzjdD9Uk-mY5WA9KTlrh-6" target="mzjdD9Uk-mY5WA9KTlrh-7">
          <mxGeometry relative="1" as="geometry" />
        </mxCell>
        <mxCell id="mzjdD9Uk-mY5WA9KTlrh-6" value="&lt;font style=&quot;font-size: 21px;&quot;&gt;Factory&lt;/font&gt;" style="rounded=1;whiteSpace=wrap;html=1;" vertex="1" parent="1">
          <mxGeometry x="526" y="240" width="120" height="60" as="geometry" />
        </mxCell>
        <mxCell id="mzjdD9Uk-mY5WA9KTlrh-7" value="&lt;font style=&quot;font-size: 21px;&quot;&gt;DomainService&lt;/font&gt;" style="rounded=1;whiteSpace=wrap;html=1;" vertex="1" parent="1">
          <mxGeometry x="306" y="80" width="216" height="60" as="geometry" />
        </mxCell>
      </root>
    </mxGraphModel>
  </diagram>
</mxfile>
